<svg xmlns="http://www.w3.org/2000/svg" viewBox="0 0 533.47 104.82"><defs><style>.cls-1{font-size:90px;font-family:Arial-Black, Arial Black;letter-spacing:0.07em;}.cls-1,.cls-3{fill:#4d4d4d;}.cls-2{letter-spacing:0.05em;}.cls-4{fill:#fff;}</style></defs><title>Asset 4</title><g id="Layer_2" data-name="Layer 2"><g id="Layer_1-2" data-name="Layer 1"><text class="cls-1" transform="translate(0 77.22)">D<tspan class="cls-2" x="76.75" y="0">e</tspan><tspan x="141.21" y="0" xml:space="preserve">v   ECS</tspan></text><rect class="cls-3" x="214.89" y="2.62" width="84" height="84"/><rect class="cls-4" x="255.15" y="2.62" width="3.87" height="84"/><rect class="cls-4" x="262.89" y="2.62" width="3.87" height="84"/><rect class="cls-4" x="228.83" y="16.17" width="56.52" height="56.52"/><text></text><rect class="cls-4" x="247.41" y="2.62" width="3.87" height="84"/><rect class="cls-4" x="239.66" y="2.62" width="3.87" height="84"/><rect class="cls-4" x="270.63" y="2.62" width="3.87" height="84"/><rect class="cls-4" x="254.95" y="2.81" width="3.87" height="84" transform="translate(212.08 301.7) rotate(-90)"/><rect class="cls-4" x="254.95" y="-4.93" width="3.87" height="84" transform="translate(219.82 293.96) rotate(-90)"/><rect class="cls-4" x="254.95" y="10.55" width="3.87" height="84" transform="translate(204.34 309.44) rotate(-90)"/><rect class="cls-4" x="254.95" y="18.3" width="3.87" height="84" transform="translate(196.59 317.18) rotate(-90)"/><rect class="cls-4" x="254.95" y="-12.67" width="3.87" height="84" transform="translate(227.56 286.22) rotate(-90)"/><rect class="cls-3" x="239.66" y="27.39" width="34.84" height="34.84"/></g></g></svg>