<svg id="Layer_1" data-name="Layer 1" xmlns="http://www.w3.org/2000/svg" xmlns:xlink="http://www.w3.org/1999/xlink" viewBox="0 0 288.31 129.4"><defs><style>.cls-1{fill:url(#linear-gradient);}.cls-2{fill:#fff;}</style><linearGradient id="linear-gradient" x1="43.25" y1="-36.2" x2="245.06" y2="165.6" gradientUnits="userSpaceOnUse"><stop offset="0" stop-color="#3d8fee"/><stop offset="1" stop-color="#45d3ff"/></linearGradient></defs><title>SRO LOGO</title><rect class="cls-1" width="288.31" height="129.4" rx="12"/><path class="cls-2" d="M122.14,95.32a26.68,26.68,0,0,1-7.92-1.17,23,23,0,0,1-6.93-3.51,24.32,24.32,0,0,1-5.49-5.72,27.35,27.35,0,0,1-3.68-7.87l11.42-4.5a17.36,17.36,0,0,0,4.42,8,11.07,11.07,0,0,0,8.27,3.2,13.35,13.35,0,0,0,3.65-.5A10.8,10.8,0,0,0,129,81.86a6.86,6.86,0,0,0,2.2-2.38,6.68,6.68,0,0,0,.81-3.33,8.17,8.17,0,0,0-.62-3.24,7.71,7.71,0,0,0-2.12-2.7,18.77,18.77,0,0,0-3.87-2.43,59.31,59.31,0,0,0-5.89-2.43l-4-1.44a30.14,30.14,0,0,1-5.27-2.43,22.78,22.78,0,0,1-4.81-3.69,18,18,0,0,1-3.56-5.09,15.16,15.16,0,0,1-1.4-6.61A17,17,0,0,1,102,39a17.37,17.37,0,0,1,4.23-5.76,19.83,19.83,0,0,1,6.57-3.87,27.28,27.28,0,0,1,16.92-.09,20.69,20.69,0,0,1,6,3.33,18.8,18.8,0,0,1,4,4.46A22.47,22.47,0,0,1,142,41.68l-10.71,4.5A11.51,11.51,0,0,0,128,41.32a9.37,9.37,0,0,0-6.53-2.16A11.05,11.05,0,0,0,115,41a5.64,5.64,0,0,0-2.62,4.82,6.09,6.09,0,0,0,2.52,4.9,27.41,27.41,0,0,0,8,3.92l4,1.35a46.77,46.77,0,0,1,7.06,3.1,22.15,22.15,0,0,1,5.49,4.19A17,17,0,0,1,143,68.81,19.57,19.57,0,0,1,144.2,76a17.6,17.6,0,0,1-2,8.68,18.7,18.7,0,0,1-5.17,6,22.66,22.66,0,0,1-7.12,3.51A27.19,27.19,0,0,1,122.14,95.32Z" transform="translate(0.24 0.17)"/><path class="cls-2" d="M152.75,29.44h23.48A24.3,24.3,0,0,1,185.05,31a20.39,20.39,0,0,1,6.8,4.23,18.47,18.47,0,0,1,4.36,6.43,21.31,21.31,0,0,1,1.54,8.15,17.11,17.11,0,0,1-1.08,6.07,18.48,18.48,0,0,1-3,5.13A21.86,21.86,0,0,1,189.28,65,22.35,22.35,0,0,1,184,67.78l-.09.63,17.29,24.75v.72h-14L170.56,69.67h-5.67V93.88H152.75Zm23.39,29.07a9.48,9.48,0,0,0,6.8-2.52,8.43,8.43,0,0,0,2.65-6.39,9.73,9.73,0,0,0-.58-3.33,8.38,8.38,0,0,0-1.76-2.88,8.63,8.63,0,0,0-2.92-2,10,10,0,0,0-4-.76H164.89V58.51Z" transform="translate(0.24 0.17)"/><path class="cls-2" d="M237.61,95.32a33.9,33.9,0,0,1-13.36-2.61,32.56,32.56,0,0,1-17.73-17.87,35.11,35.11,0,0,1,0-26.37,32.5,32.5,0,0,1,17.73-17.86,35.52,35.52,0,0,1,26.73,0,32.82,32.82,0,0,1,10.66,7.15,33.15,33.15,0,0,1,7.07,10.71,35.23,35.23,0,0,1,0,26.37A32.64,32.64,0,0,1,251,92.71,34,34,0,0,1,237.61,95.32Zm0-11.52A21.81,21.81,0,0,0,246,82.18a21.19,21.19,0,0,0,6.84-4.5,20.39,20.39,0,0,0,4.59-7,25.47,25.47,0,0,0,0-18.09,20.45,20.45,0,0,0-4.59-7,21.19,21.19,0,0,0-6.84-4.5,22.67,22.67,0,0,0-16.83,0,21.19,21.19,0,0,0-6.84,4.5,20.45,20.45,0,0,0-4.59,7,25.33,25.33,0,0,0,0,18.09,20.39,20.39,0,0,0,4.59,7,21.19,21.19,0,0,0,6.84,4.5A21.76,21.76,0,0,0,237.61,83.8Z" transform="translate(0.24 0.17)"/><rect class="cls-2" x="18.21" y="83.9" width="58.56" height="11.09"/><path class="cls-2" d="M86.65,48.35c-8-.25-10.56-.07-15-.9l-.27,2-2,0c.29,4.46-.19,7-.91,14.95,3.07,5.22,10.83,10.08,11.82,9.29l1.78-2.37c-4-3-6.55-5-9.38-9.39.27-5.46.39-7.63.59-10.39,2.77.13,4.94.27,10.39.66,4,3.34,5.72,6.09,8.24,10.4l2.56-1.47C95.39,60.28,91.45,52,86.65,48.35Z" transform="translate(0.24 0.17)"/><circle class="cls-2" cx="70.97" cy="50.35" r="7.57"/><circle class="cls-2" cx="39.91" cy="35.21" r="7.57"/><rect class="cls-2" x="48.61" y="20.84" width="8" height="40.68" transform="translate(-8.02 68.9) rotate(-62.4)"/><rect class="cls-2" x="27.78" y="35.66" width="8.64" height="24.23" transform="translate(26.03 -9.26) rotate(27.6)"/><circle class="cls-2" cx="26.13" cy="60.8" r="7.57"/><rect class="cls-2" x="29.87" y="55.35" width="14.84" height="38.12" transform="translate(-38.75 41.3) rotate(-39.81)"/></svg>