<svg id="Layer_1" data-name="Layer 1" xmlns="http://www.w3.org/2000/svg" viewBox="0 0 1417.32 1417.32"><defs><style>.cls-1{fill:#d3001a;}.cls-2{fill:#5c5456;}</style></defs><title>ECSS_cogArtboard 1 copy</title><path d="M708.5,1267.07c-155.08,0-300.87-60.39-410.53-170s-170-255.45-170-410.53S188.32,385.63,298,276s255.45-170,410.53-170S1009.37,166.32,1119,276s170,255.45,170,410.53C1289.07,1006.63,1028.63,1267.07,708.5,1267.07Zm0-1104.16c-288.71,0-523.59,234.88-523.59,523.59s234.88,523.59,523.59,523.59,523.59-234.88,523.59-523.59S997.21,162.91,708.5,162.91Z"/><path class="cls-1" d="M705.73,878.87c-95.31,0-174.61-69.69-189.72-160.78a6.26,6.26,0,0,0-6.15-5.28H455.2a6.2,6.2,0,0,0-6.18,6.93c16.37,127.08,125.25,225.6,256.71,225.6,65.29,0,130.89-27.54,180-75.55,42.49-41.55,69-93.84,76.59-149.87a6.24,6.24,0,0,0-6.16-7.11h-54.8a6.26,6.26,0,0,0-6.13,5.2C879.21,806.72,797.54,878.87,705.73,878.87Z"/><path class="cls-1" d="M705.73,494.13c96.25,0,176.15,71.06,190.15,163.46A6.24,6.24,0,0,0,902,663h54.55a6.2,6.2,0,0,0,6.19-6.86c-15.1-128.45-124.6-228.43-257-228.43s-241.94,100-257,228.43a6.2,6.2,0,0,0,6.19,6.86h54.55a6.26,6.26,0,0,0,6.16-5.37C529.58,565.19,609.49,494.13,705.73,494.13Z"/><path d="M1082.17,739l72.22-9.78a5.47,5.47,0,0,0,2.34-.88L1178.1,714a5.53,5.53,0,0,0,2.45-4.61l-.07-45.57a5.54,5.54,0,0,0-2.47-4.6L1156.59,645a5.58,5.58,0,0,0-2.34-.87l-71.73-9.47a5.49,5.49,0,0,1-4.72-4.67,373.53,373.53,0,0,0-106-209.53,381.19,381.19,0,0,0-30.18-27.12,5.5,5.5,0,0,1-1.68-6.33l27.78-69.89a5.52,5.52,0,0,0,.37-2.48l-2-25.63a5.56,5.56,0,0,0-2.82-4.4l-39.76-22.27a5.55,5.55,0,0,0-5.22-.1L895.42,274a5.4,5.4,0,0,0-1.91,1.61l-44,58.67a5.51,5.51,0,0,1-6.43,1.81,374.3,374.3,0,0,0-107.86-24.62,5.54,5.54,0,0,0-5.94,5.53v63.93a5.53,5.53,0,0,0,5,5.49,301.56,301.56,0,0,1,272.94,300.18c0,79.18-32.74,154.79-92.18,212.92-50.33,49.21-115,80.06-180.82,87.06a5.53,5.53,0,0,0-5,5.49v64a5.54,5.54,0,0,0,6,5.53,366.3,366.3,0,0,0,107.62-26.47,5.52,5.52,0,0,1,6.53,1.77l44.1,58.8a5.4,5.4,0,0,0,1.91,1.61l22.89,11.7a5.55,5.55,0,0,0,5.22-.1l39.76-22.27a5.56,5.56,0,0,0,2.82-4.4l2-25.64a5.5,5.5,0,0,0-.37-2.47l-29-73.15-.73-2a391.12,391.12,0,0,0,29.37-26C1027,894.6,1065,821.77,1077.48,743.59A5.49,5.49,0,0,1,1082.17,739Z"/><path class="cls-2" d="M327.84,738.79l-70.45-9.53a7.29,7.29,0,0,1-3.11-1.18l-20.2-13.52a7.33,7.33,0,0,1-3.27-6.12l.07-43.62a7.35,7.35,0,0,1,3.29-6.12l20.25-13.45a7.41,7.41,0,0,1,3.11-1.17l70-9.23a7.36,7.36,0,0,0,6.29-6.21A373.52,373.52,0,0,1,439.56,420.47a381.28,381.28,0,0,1,29.07-26.22,7.35,7.35,0,0,0,2.23-8.41l-27.07-68.32a7.38,7.38,0,0,1-.49-3.28L445.18,290a7.37,7.37,0,0,1,3.74-5.86L487,262.83a7.38,7.38,0,0,1,6.95-.13l21.65,11.06a7.37,7.37,0,0,1,2.54,2.13L561,333.12a7.37,7.37,0,0,0,8.56,2.42,374.42,374.42,0,0,1,104.62-24,7.34,7.34,0,0,1,7.89,7.35v60.29a7.38,7.38,0,0,1-6.7,7.32,301.55,301.55,0,0,0-271.27,300c0,79.18,32.73,154.79,92.17,212.92,49.91,48.8,113.89,79.55,179.18,86.88a7.38,7.38,0,0,1,6.62,7.32V1054a7.35,7.35,0,0,1-8,7.34,366.11,366.11,0,0,1-104.34-25.77,7.36,7.36,0,0,0-8.68,2.37l-43,57.34a7.37,7.37,0,0,1-2.54,2.13l-21.65,11.06a7.38,7.38,0,0,1-6.95-.13L448.92,1087a7.33,7.33,0,0,1-3.74-5.85L443.3,1057a7.23,7.23,0,0,1,.5-3.28l27.64-69.73a7.34,7.34,0,0,0-2.2-8.4q-13-10.71-25.22-22.61c-59.31-58-97.22-130.33-109.92-208A7.36,7.36,0,0,0,327.84,738.79Z"/></svg>