<?xml version="1.0" encoding="UTF-8" standalone="no"?><!DOCTYPE svg PUBLIC "-//W3C//DTD SVG 1.1//EN" "http://www.w3.org/Graphics/SVG/1.1/DTD/svg11.dtd"><svg width="100%" height="100%" viewBox="0 0 3773 2984" version="1.1" xmlns="http://www.w3.org/2000/svg" xmlns:xlink="http://www.w3.org/1999/xlink" xml:space="preserve" xmlns:serif="http://www.serif.com/" style="fill-rule:evenodd;clip-rule:evenodd;stroke-linejoin:round;stroke-miterlimit:2;"><path d="M1670.97,2171.66c-337.219,-0 -617.469,-247.938 -668.406,-571.063c-1.174,-7.529 -7.693,-13.157 -15.313,-13.218l-205.094,-0c-8.486,0.122 -15.4,7.136 -15.4,15.623c-0,0.554 0.029,1.107 0.088,1.658c54.406,450.562 439.125,800.875 904.125,800.875c229.687,-0 460.531,-96.875 633.25,-265.813c5.25,-5.125 10.458,-10.333 15.625,-15.625c1.519,-1.577 2.369,-3.684 2.369,-5.875c0,-4.643 -3.819,-8.465 -8.463,-8.468l-366.969,-1.407c-86.093,41.319 -180.318,62.948 -275.812,63.313Z" style="fill:#d3001a;fill-rule:nonzero;"/><path d="M1670.97,817.969c104.158,-0.138 206.935,23.946 300.187,70.344l360.063,0.719c0.04,0.001 0.081,0.001 0.121,0.001c4.646,-0 8.469,-3.823 8.469,-8.469c0,-2.176 -0.839,-4.27 -2.34,-5.845c-171.901,-185.35 -413.613,-290.762 -666.406,-290.625c-468.407,0 -855.282,355.469 -905.188,810.782c-0.046,0.488 -0.069,0.978 -0.069,1.469c-0,8.538 6.999,15.577 15.538,15.624l204.562,0c7.702,-0.062 14.266,-5.811 15.344,-13.437c46.781,-327.75 329.188,-580.563 669.719,-580.563Z" style="fill:#d3001a;fill-rule:nonzero;"/><path d="M2526.66,2107.56c-36.02,48.62 -75.865,94.286 -119.156,136.563c-177.094,173.156 -404.469,281.687 -636.219,306.25c-9.867,1.003 -17.471,9.394 -17.5,19.312l0,225c0,0.021 0,0.042 0,0.063c0,10.697 8.803,19.5 19.5,19.5c0.522,-0 1.043,-0.021 1.563,-0.063c130.213,-11.662 257.895,-43.074 378.656,-93.156c8.158,-3.409 17.663,-0.822 22.969,6.25l155.156,206.906c1.782,2.37 4.08,4.305 6.719,5.656l80.562,41.157c5.796,2.958 12.706,2.817 18.375,-0.375l139.875,-78.344c5.719,-3.203 9.449,-9.087 9.907,-15.625l7,-90.188c0.225,-2.957 -0.223,-5.928 -1.313,-8.687l-102.125,-257.375l-2.562,-7.094c139.52,-111.514 256.238,-248.892 343.75,-404.594c0.643,-1.224 0.979,-2.586 0.979,-3.969c0,-4.649 -3.8,-8.485 -8.448,-8.531l-297.688,1.344Z" style="fill:#fff;fill-rule:nonzero;"/><path d="M2833.25,888.719c0.015,0 0.03,0.001 0.045,0.001c4.646,-0 8.468,-3.823 8.468,-8.469c0,-1.592 -0.448,-3.152 -1.294,-4.5c-31.719,-50.25 -148.938,-232.5 -233.313,-316.938c-33.692,-33.681 -69.16,-65.539 -106.25,-95.437c-6.62,-5.302 -9.026,-14.363 -5.906,-22.25l97.75,-245.844c1.09,-2.759 1.538,-5.73 1.313,-8.688l-7,-90.187c-0.504,-6.484 -4.228,-12.3 -9.907,-15.469l-139.875,-78.469c-5.679,-3.166 -12.58,-3.295 -18.375,-0.343l-80.5,41.156c-2.639,1.352 -4.936,3.286 -6.718,5.656l-154.813,206.438c-5.262,6.913 -14.56,9.482 -22.625,6.25c-121.547,-47.481 -249.477,-76.644 -379.594,-86.532c-0.457,-0.032 -0.916,-0.048 -1.375,-0.048c-10.697,-0 -19.5,8.802 -19.5,19.5c0,0.016 0,0.032 0,0.048l0,225c0.042,10.004 7.786,18.43 17.75,19.313c245.635,22.736 475.634,131.096 649.563,306.031c44.906,44.906 119.875,142.219 119.875,142.219l292.281,1.562Z" style="fill:#fff;fill-rule:nonzero;"/><path d="M341.531,1678.81l-248.031,-33.531c-3.911,-0.529 -7.651,-1.94 -10.937,-4.125l-71.094,-47.563c-7.185,-4.809 -11.497,-12.916 -11.469,-21.562l0.25,-153.469c0.003,-8.653 4.351,-16.75 11.563,-21.531l71.25,-47.344c3.295,-2.163 7.032,-3.561 10.937,-4.094l246.125,-32.5c11.401,-1.523 20.472,-10.492 22.125,-21.875c42.406,-276.25 170.844,-531.25 372.188,-732.437c32.507,-32.486 66.656,-63.286 102.312,-92.281c8.772,-7.075 11.961,-19.104 7.844,-29.594l-95.25,-240.344c-1.442,-3.663 -2.03,-7.607 -1.719,-11.531l6.594,-85.281c0.679,-8.62 5.62,-16.355 13.156,-20.594l133.906,-75c7.55,-4.221 16.732,-4.397 24.438,-0.469l76.156,38.906c3.518,1.792 6.576,4.369 8.938,7.532l151,201.406c6.98,9.237 19.345,12.726 30.125,8.5c117.995,-45.662 241.959,-74.079 368.062,-84.375c0.645,-0.049 1.291,-0.073 1.938,-0.073c14.177,0 25.844,11.666 25.844,25.844c-0,0.035 -0,0.069 -0.001,0.104l0,212.125c-0.056,13.311 -10.338,24.533 -23.593,25.75c-539.19,54.458 -954.404,513.692 -954.438,1055.62c0,278.562 115.188,544.594 324.313,749.125c175.625,171.875 400.687,279.906 630.437,305.687c13.128,1.381 23.227,12.55 23.281,25.75l0,212.313c0.001,0.034 0.001,0.067 0.001,0.101c-0,14.177 -11.667,25.844 -25.844,25.844c-0.762,-0 -1.523,-0.034 -2.282,-0.101c-126.165,-11.988 -249.874,-42.525 -367.125,-90.625c-10.862,-4.507 -23.496,-1.058 -30.562,8.343l-151.281,201.719c-2.362,3.163 -5.42,5.74 -8.938,7.531l-76.031,38.938c-7.706,3.928 -16.888,3.752 -24.438,-0.469l-133.906,-75c-7.536,-4.239 -12.477,-11.974 -13.156,-20.594l-6.438,-85.375c-0.31,-3.924 0.278,-7.868 1.719,-11.531l97.281,-245.344c4.13,-10.455 0.995,-22.46 -7.718,-29.562c-30.605,-25.125 -60.188,-51.646 -88.75,-79.563c-208.782,-204.031 -342.25,-458.531 -386.907,-731.843c-1.761,-11.18 -10.671,-19.963 -21.875,-21.563Z" style="fill:#5c5456;fill-rule:nonzero;"/><path d="M1384.75,1996.97l0,-1002.28c0,-10.286 8.464,-18.75 18.75,-18.75l443.75,0.875c10.286,0 18.75,8.464 18.75,18.75l0,134.094c0,10.286 -8.464,18.75 -18.75,18.75l-235.844,-0.469c-10.286,0 -18.75,8.464 -18.75,18.75l0,217.906c0,10.286 8.464,18.75 18.75,18.75l230.969,0.469c10.286,0 18.75,8.464 18.75,18.75l0,125.844c0,10.286 -8.464,18.75 -18.75,18.75l-230.781,-0.469c-10.286,0 -18.75,8.464 -18.75,18.75l-0,231.625c-0,10.286 8.464,18.75 18.75,18.75l234.375,0.469c10.286,-0 18.75,8.464 18.75,18.75l-0,142.344c-0,10.286 -8.464,18.75 -18.75,18.75l-441.938,-0.844c-0.178,0.005 -0.357,0.008 -0.536,0.008c-10.123,-0 -18.513,-8.2 -18.745,-18.321Z" style="fill:#fff;fill-rule:nonzero;"/><path d="M2511.91,1619.56c9.32,0.008 17.261,7.033 18.407,16.281c0.906,7.563 1.5,15.219 1.843,22.907c0.563,13.312 0.844,31.406 0.844,54.281c0,54.937 -3.656,102.552 -10.969,142.844c-7.312,40.291 -21.104,73.687 -41.375,100.187c-20.25,26.542 -48.677,46.406 -85.281,59.594c-36.604,13.187 -84.167,19.729 -142.687,19.625c-72.063,-0.125 -126.657,-6.375 -163.782,-18.75c-37.125,-12.375 -65.25,-34.646 -84.375,-66.813c-9.832,-16.456 -17.769,-33.974 -23.656,-52.218c-6.75,-20.146 -12.375,-47.177 -16.875,-81.094c-4.5,-33.917 -7.625,-76.969 -9.375,-129.156c-1.687,-52.084 -2.531,-118.479 -2.531,-199.188c-0,-86.062 1.406,-155.198 4.219,-207.406c2.812,-52.208 6.468,-93.875 10.968,-125c4.5,-31.083 10.136,-54.417 16.907,-70c6.265,-14.692 13.576,-28.916 21.875,-42.563c18.492,-30.572 47.217,-53.639 81.062,-65.093c34.875,-12.292 87.781,-18.365 158.719,-18.219c64.167,0.125 113.125,5.25 146.875,15.375c33.75,10.125 59.687,26.208 77.812,48.25c39.375,45.833 59.073,129.667 59.094,251.5l0,48.75c-0.024,6.086 -0.357,12.167 -1,18.219c-0.997,9.45 -9.029,16.723 -18.531,16.781l-161.469,-0.313c-10.186,-0.142 -18.488,-8.561 -18.488,-18.748c0,-0.282 0.007,-0.564 0.019,-0.845c0,-3.563 0.219,-7.094 0.219,-10.657l0,-42.687c0.262,-27.107 -1.43,-54.198 -5.062,-81.063c-3.375,-22.916 -7.886,-39.406 -13.532,-49.468c-5.085,-8.625 -12.364,-15.753 -21.093,-20.657c-8.438,-4.604 -23.355,-6.916 -44.75,-6.937c-22.521,-0 -38.563,2.479 -48.125,7.437c-9.563,4.959 -16.605,13.875 -21.125,26.75c-3.623,10.064 -6.445,20.398 -8.438,30.907c-2.917,17.044 -4.889,34.237 -5.906,51.5c-1.688,22.916 -2.813,53.593 -3.375,92.031c-0.563,38.437 -0.844,88.802 -0.844,151.094c0,63.187 0.281,114.479 0.844,153.875c0.562,39.396 1.687,70.76 3.375,94.093c1.072,17.952 3.043,35.839 5.906,53.594c1.887,10.981 4.71,21.781 8.438,32.281c4.5,12.855 11.791,21.803 21.875,26.844c10.083,5.042 28.093,7.594 54.031,7.656c37.146,0 59.094,-12.781 65.844,-38.343c6.04,-20.569 9.731,-41.757 11,-63.157c1.687,-23.812 2.531,-55.406 2.531,-94.781l-0,-20.781c-0.002,-0.094 -0.002,-0.188 -0.002,-0.282c-0,-10.216 8.349,-18.648 18.564,-18.749l161.375,0.312Z" style="fill:#fff;fill-rule:nonzero;"/><path d="M2982.78,1301.81c-12.904,-0.056 -23.491,-10.689 -23.491,-23.593c-0,-0.532 0.018,-1.064 0.054,-1.594l-0,-0.282c0.562,-9.625 0.844,-22.677 0.844,-39.156c-0,-40.271 -4.782,-68.896 -14.344,-85.875c-9.563,-16.979 -32.354,-25.5 -68.375,-25.562c-13.032,-0.27 -26.054,0.862 -38.844,3.375c-9.802,2.031 -18.524,7.594 -24.5,15.625c-6.25,8.218 -10.406,19.687 -12.656,34.375c-2.57,19.578 -3.698,39.319 -3.375,59.062c-0,21.875 0.25,39.375 0.844,52.188c0.244,10.664 1.659,21.269 4.218,31.625c1.784,7.431 5.296,14.337 10.25,20.156c6.13,6.443 12.929,12.215 20.282,17.219c15.701,10.417 32.058,19.811 48.968,28.125c19.125,9.646 39.386,18.843 60.782,27.593c21.395,8.75 41.937,17.49 61.625,26.219c19.687,8.75 36.291,16.792 49.812,24.125c17.636,9.279 34.284,20.325 49.688,32.969c13.573,11.886 24.261,26.71 31.25,43.344c7.875,17.875 13.218,41.239 16.031,70.093c2.812,28.855 4.229,66.636 4.25,113.344c-0,64.084 -4.792,116.5 -14.375,157.25c-9.583,40.75 -25.344,72.542 -47.281,95.375c-21.938,22.917 -50.927,38.427 -86.969,46.531c-36.042,8.105 -81.063,12.136 -135.063,12.094c-47.312,0 -87.281,-3.51 -119.906,-10.531c-32.625,-7.021 -59.646,-19.896 -81.062,-38.625c-21.375,-18.75 -36.855,-44.875 -46.438,-78.375c-9.583,-33.5 -14.364,-77.25 -14.344,-131.25c-0.102,-20.196 1.025,-40.379 3.375,-60.438c1.23,-10.02 2.636,-19.218 4.219,-27.593c2.102,-11.064 11.895,-19.126 23.156,-19.063l128.125,0.25c12.888,0.031 23.475,10.644 23.475,23.531c0,0.177 -0.002,0.355 -0.006,0.532l0,36.406c-0.359,22.991 1.051,45.975 4.219,68.75c2.781,17.406 7.312,30.906 13.5,40.625c5.773,9.342 14.805,16.225 25.344,19.312c12.929,3.508 26.293,5.149 39.687,4.875c14.182,0.303 28.351,-1.05 42.219,-4.031c10.991,-2.578 20.628,-9.181 27,-18.5c6.75,-9.625 11.531,-23.812 14.344,-42.562c3.225,-25.734 4.635,-51.663 4.218,-77.594c0,-19.25 -0.281,-34.563 -0.843,-46.031c-0.266,-9.811 -1.972,-19.529 -5.063,-28.844c-2.571,-7.375 -6.587,-14.164 -11.812,-19.969c-4.875,-5.312 -11.094,-11.469 -18.75,-18.5c-0.532,-0.5 -1.094,-0.969 -1.657,-1.437c-16.778,-13.121 -34.887,-24.444 -54.031,-33.782c-21.958,-11.02 -44.76,-21.593 -68.406,-31.718c-23.646,-10.125 -46.719,-20.698 -69.219,-31.719c-20.2,-9.597 -39.434,-21.108 -57.437,-34.375c-12.49,-9.147 -23.823,-19.777 -33.75,-31.656c-9.021,-11 -16.063,-25.667 -21.125,-44c-5.063,-18.334 -8.438,-42.146 -10.125,-71.438c-1.688,-29.312 -2.532,-67.781 -2.532,-115.406c0,-49.479 4.5,-90.448 13.5,-122.906c9,-32.459 23.917,-58.302 44.75,-77.532c20.834,-19.229 48.417,-32.687 82.75,-40.375c34.334,-7.687 76.834,-11.5 127.5,-11.437c52.875,0.125 96.49,4.104 130.844,11.937c34.354,7.834 61.375,20.709 81.063,38.625c19.687,17.917 33.229,41.303 40.625,70.157c7.395,28.854 11.052,64.343 10.968,106.468c0,29.313 -0.843,52.438 -2.531,69.375c-0.851,8.856 -2.228,17.653 -4.125,26.344c-2.449,10.687 -12.067,18.309 -23.031,18.25l-128.313,-0.375Z" style="fill:#fff;fill-rule:nonzero;"/><path d="M3599.12,1303c-12.92,-0.059 -23.518,-10.705 -23.518,-23.625c-0,-0.511 0.016,-1.022 0.049,-1.532l0,-0.281c0.563,-9.625 0.844,-22.677 0.844,-39.156c0,-40.292 -4.792,-68.917 -14.375,-85.875c-9.583,-16.958 -32.375,-25.479 -68.375,-25.563c-13.032,-0.283 -26.056,0.848 -38.844,3.375c-9.799,2.017 -18.517,7.583 -24.468,15.625c-6.25,8.334 -10.48,19.792 -12.688,34.375c-2.555,19.58 -3.683,39.32 -3.375,59.063c0,21.958 0.281,39.354 0.844,52.187c0.258,10.653 1.672,21.247 4.219,31.594c1.776,7.359 5.255,14.199 10.156,19.969c6.104,6.45 12.894,12.213 20.25,17.187c15.702,10.418 32.058,19.812 48.969,28.125c19.125,9.667 39.385,18.865 60.781,27.594c21.396,8.729 41.948,17.469 61.656,26.219c19.688,8.771 36.292,16.823 49.813,24.156c17.674,9.317 34.363,20.394 49.812,33.063c13.583,11.877 24.272,26.704 31.25,43.343c7.875,17.875 13.229,41.24 16.063,70.094c2.833,28.854 4.239,66.625 4.218,113.313c0,64.125 -4.781,116.552 -14.343,157.281c-9.563,40.729 -25.323,72.521 -47.282,95.375c-21.958,22.917 -50.948,38.427 -86.968,46.531c-36.021,8.104 -81.052,12.136 -135.094,12.094c-47.271,-0 -87.24,-3.51 -119.906,-10.531c-32.667,-7.021 -59.677,-19.896 -81.032,-38.625c-21.395,-18.75 -36.875,-44.886 -46.437,-78.407c-9.563,-33.52 -14.344,-77.27 -14.344,-131.25c-0.116,-20.196 1.011,-40.38 3.375,-60.437c1.219,-10 2.625,-19.219 4.188,-27.594c2.128,-11.056 11.928,-19.099 23.187,-19.031l128.125,0.25c12.892,0.049 23.474,10.67 23.474,23.562c-0,0.157 -0.002,0.313 -0.005,0.469l-0,36.469c-0.359,22.991 1.051,45.975 4.219,68.75c2.812,17.417 7.323,30.958 13.531,40.625c5.764,9.33 14.786,16.202 25.312,19.281c12.924,3.537 26.292,5.189 39.688,4.906c14.183,0.294 28.352,-1.069 42.219,-4.062c11.004,-2.547 20.652,-9.157 27,-18.5c6.781,-9.594 11.531,-23.781 14.375,-42.531c3.209,-25.746 4.619,-51.684 4.218,-77.625c0,-19.209 -0.281,-34.542 -0.843,-46c-0.301,-9.818 -2.006,-19.541 -5.063,-28.875c-2.582,-7.368 -6.609,-14.146 -11.844,-19.938c-4.875,-5.312 -11.093,-11.469 -18.593,-18.5c-0.532,-0.5 -1.094,-1 -1.657,-1.437c-16.77,-13.132 -34.881,-24.455 -54.031,-33.782c-21.979,-11.041 -44.781,-21.614 -68.406,-31.718c-23.625,-10.104 -46.698,-20.688 -69.219,-31.75c-20.19,-9.598 -39.413,-21.109 -57.406,-34.375c-12.496,-9.128 -23.839,-19.736 -33.781,-31.594c-9.021,-11.021 -16.052,-25.688 -21.094,-44c-5.042,-18.313 -8.427,-42.188 -10.156,-71.625c-1.688,-29.292 -2.532,-67.75 -2.532,-115.375c0,-49.479 4.511,-90.458 13.532,-122.938c9.02,-32.479 23.937,-58.25 44.75,-77.312c20.833,-19.188 48.406,-32.635 82.718,-40.344c34.313,-7.708 76.813,-11.521 127.5,-11.437c52.917,-0 96.542,3.979 130.875,11.937c34.334,7.959 61.344,20.834 81.032,38.625c19.687,17.896 33.229,41.271 40.625,70.125c7.395,28.854 11.062,64.354 11,106.5c-0,29.313 -0.844,52.427 -2.532,69.344c-0.856,8.857 -2.243,17.654 -4.156,26.344c-2.425,10.688 -12.04,18.317 -23,18.25l-128.5,-0.375Z" style="fill:#fff;fill-rule:nonzero;"/></svg>